<svg id="visual" viewBox="0 0 500 600" width="500" height="600" xmlns="http://www.w3.org/2000/svg" xmlns:xlink="http://www.w3.org/1999/xlink" version="1.1"><path d="M0 145L63 121L125 73L188 103L250 79L313 79L375 97L438 133L500 151L500 0L438 0L375 0L313 0L250 0L188 0L125 0L63 0L0 0Z" fill="#00cc8e"></path><path d="M0 205L63 199L125 109L188 187L250 181L313 157L375 157L438 193L500 211L500 149L438 131L375 95L313 77L250 77L188 101L125 71L63 119L0 143Z" fill="#00b98a"></path><path d="M0 301L63 289L125 241L188 253L250 283L313 265L375 217L438 241L500 331L500 209L438 191L375 155L313 155L250 179L188 185L125 107L63 197L0 203Z" fill="#00a784"></path><path d="M0 403L63 481L125 403L188 379L250 469L313 481L375 421L438 355L500 535L500 329L438 239L375 215L313 263L250 281L188 251L125 239L63 287L0 299Z" fill="#00957c"></path><path d="M0 601L63 601L125 601L188 601L250 601L313 601L375 601L438 601L500 601L500 533L438 353L375 419L313 479L250 467L188 377L125 401L63 479L0 401Z" fill="#038373"></path></svg>